<svg width="50" height="50" viewBox="0 0 50 50" fill="none" xmlns="http://www.w3.org/2000/svg">
<path d="M2.10837 30.3418C1.30518 30.5292 0.801648 31.3341 1.03667 32.1246C2.74131 37.8589 6.45321 42.8101 11.519 46.0538C17.0052 49.5667 23.6459 50.7993 30.0274 49.4893C36.4088 48.1792 42.0269 44.43 45.6854 39.0398C49.3439 33.6496 50.7538 27.0442 49.6151 20.63C48.4763 14.2157 44.8788 8.49936 39.5885 4.69788C34.2981 0.896396 27.7329 -0.689891 21.2905 0.276747C14.848 1.24338 9.03741 4.68659 5.09567 9.87328C1.45603 14.6625 -0.324726 20.5888 0.0486457 26.5594C0.100122 27.3826 0.849934 27.9649 1.66856 27.8644C2.48719 27.7639 3.06399 27.0186 3.01919 26.195C2.73645 20.9981 4.30503 15.8499 7.47365 11.6805C10.9445 7.11344 16.0609 4.0816 21.7336 3.23045C27.4064 2.3793 33.1873 3.77607 37.8456 7.12338C42.5039 10.4707 45.6716 15.5041 46.6743 21.1521C47.677 26.8 46.4355 32.6162 43.2141 37.3624C39.9927 42.1087 35.0458 45.41 29.4268 46.5635C23.8077 47.7171 17.9603 46.6317 13.1296 43.5385C8.71938 40.7146 5.47454 36.4209 3.9511 31.4442C3.70968 30.6556 2.91157 30.1543 2.10837 30.3418Z" fill="#45BBBD"/>
<path d="M44.9922 25C44.9922 36.0457 36.0379 45 24.9922 45C13.9465 45 4.99219 36.0457 4.99219 25C4.99219 13.9543 13.9465 5 24.9922 5C36.0379 5 44.9922 13.9543 44.9922 25ZM5.63801 25C5.63801 35.689 14.3032 44.3542 24.9922 44.3542C35.6812 44.3542 44.3464 35.689 44.3464 25C44.3464 14.311 35.6812 5.64582 24.9922 5.64582C14.3032 5.64582 5.63801 14.311 5.63801 25Z" fill="#F0801A"/>
<path d="M13.879 15.8434L14.3674 15.4861L16.5468 16.4156L16.5881 16.3854L16.3622 14.0269L16.8506 13.6696L17.0927 16.671L18.1544 18.1224L17.7279 18.4344L16.6662 16.983L13.879 15.8434Z" fill="#FFCE00"/>
<path d="M21.9707 16.4449C21.6653 16.5237 21.3846 16.5243 21.1283 16.4467C20.8731 16.3673 20.6543 16.2214 20.4718 16.0088C20.2903 15.7946 20.1577 15.5251 20.0739 15.2005C19.9901 14.8759 19.9754 14.5746 20.0297 14.2965C20.0851 14.0167 20.2015 13.7798 20.3788 13.5858C20.5571 13.3902 20.7894 13.2554 21.0754 13.1816C21.2405 13.139 21.4106 13.1244 21.5857 13.1379C21.7608 13.1513 21.9304 13.2029 22.0943 13.2926C22.258 13.3809 22.4051 13.5161 22.5357 13.698C22.6663 13.88 22.7697 14.1188 22.8461 14.4145L22.8993 14.6208L20.4567 15.2514L20.348 14.8305L22.2955 14.3277C22.2494 14.1489 22.1724 13.9986 22.0647 13.8768C21.9583 13.7546 21.8294 13.6698 21.6778 13.6224C21.5275 13.5746 21.3644 13.5735 21.1883 13.6189C20.9944 13.669 20.839 13.7604 20.7222 13.8933C20.6064 14.0244 20.5304 14.1761 20.4942 14.3482C20.458 14.5204 20.4624 14.6939 20.5075 14.8685L20.5799 15.1491C20.6417 15.3884 20.7353 15.5806 20.8608 15.7258C20.9873 15.8692 21.136 15.965 21.3069 16.0133C21.4775 16.0602 21.6611 16.0583 21.8578 16.0075C21.9857 15.9745 22.0966 15.9268 22.1905 15.8644C22.2855 15.8003 22.3613 15.722 22.4182 15.6296C22.4746 15.5358 22.5093 15.4286 22.5222 15.3079L23.0266 15.3185C23.0183 15.4908 22.9713 15.6526 22.8856 15.8038C22.7996 15.9536 22.6793 16.0844 22.5248 16.1962C22.3699 16.3066 22.1852 16.3895 21.9707 16.4449Z" fill="#FFCE00"/>
<path d="M24.9989 12.7404L25.5015 12.7563L25.3906 16.2659C25.3842 16.4675 25.3439 16.6411 25.2697 16.7865C25.1969 16.932 25.0896 17.043 24.948 17.1196C24.8077 17.1961 24.6325 17.2311 24.4224 17.2245C24.4053 17.2239 24.3883 17.2234 24.3713 17.2229C24.3542 17.2223 24.3372 17.2218 24.3201 17.2212L24.3349 16.7527C24.352 16.7533 24.3676 16.7538 24.3818 16.7542C24.396 16.7547 24.4116 16.7552 24.4286 16.7557C24.582 16.7605 24.6956 16.7186 24.7694 16.63C24.8432 16.5428 24.8828 16.4162 24.888 16.2501L24.9989 12.7404ZM25.2631 12.2031C25.1652 12.2 25.0818 12.1639 25.0129 12.095C24.9454 12.026 24.9132 11.9447 24.9161 11.851C24.9191 11.7573 24.9564 11.6782 25.0281 11.6137C25.1012 11.5492 25.1867 11.5185 25.2847 11.5216C25.3826 11.5247 25.4653 11.5607 25.5328 11.6296C25.6017 11.6986 25.6346 11.7799 25.6317 11.8736C25.6287 11.9673 25.5907 12.0464 25.5176 12.1109C25.4459 12.1754 25.3611 12.2062 25.2631 12.2031Z" fill="#FFCE00"/>
<path d="M29.5908 15.5469L30.1916 13.7079L30.6696 13.8641L29.6532 16.975L29.1752 16.8188L29.3473 16.2922L29.3148 16.2816C29.1903 16.4158 29.033 16.5131 28.8429 16.5735C28.6533 16.6326 28.441 16.6238 28.206 16.547C28.0116 16.4835 27.8527 16.3845 27.7292 16.25C27.6062 16.1142 27.5298 15.9457 27.4998 15.7447C27.4703 15.5423 27.4988 15.3087 27.5853 15.0441L28.2311 13.0674L28.7091 13.2235L28.0738 15.1679C27.9997 15.3947 28.0041 15.5964 28.0869 15.7728C28.171 15.9498 28.3123 16.0707 28.5108 16.1355C28.6296 16.1743 28.7604 16.1834 28.9031 16.1628C29.0472 16.1426 29.1816 16.0834 29.3063 15.9852C29.4324 15.8874 29.5272 15.7413 29.5908 15.5469Z" fill="#FFCE00"/>
<path d="M34.5594 17.2185L34.1247 17.0412C34.1487 16.9644 34.1607 16.8809 34.1608 16.7908C34.1628 16.7005 34.1413 16.608 34.0963 16.5134C34.0513 16.4187 33.9711 16.3264 33.8558 16.2363C33.698 16.113 33.538 16.0466 33.376 16.0372C33.2159 16.0275 33.0926 16.0781 33.006 16.1889C32.9291 16.2874 32.9041 16.3932 32.9312 16.5062C32.9582 16.6193 33.033 16.7543 33.1555 16.9113L33.4649 17.3044C33.6517 17.5405 33.7567 17.7604 33.7797 17.964C33.8035 18.1665 33.7451 18.3578 33.6043 18.5381C33.4889 18.6858 33.3431 18.7847 33.1671 18.8346C32.9922 18.8855 32.803 18.8854 32.5994 18.8346C32.3958 18.7837 32.1938 18.68 31.9935 18.5234C31.7304 18.3179 31.5573 18.0908 31.4741 17.8419C31.3909 17.5931 31.4121 17.341 31.5375 17.0858L31.9871 17.2856C31.9145 17.4524 31.9009 17.6094 31.9463 17.7566C31.9928 17.9047 32.0973 18.0421 32.2596 18.1689C32.4443 18.3132 32.6215 18.3886 32.7913 18.3951C32.9631 18.4013 33.0923 18.349 33.1789 18.2382C33.2488 18.1486 33.2761 18.0491 33.2606 17.9397C33.246 17.8292 33.1856 17.7081 33.0793 17.5764L32.7282 17.1399C32.5357 16.8994 32.43 16.6771 32.411 16.473C32.394 16.2687 32.455 16.0775 32.594 15.8995C32.7077 15.754 32.8491 15.6572 33.0183 15.6091C33.1886 15.5618 33.3697 15.5618 33.5617 15.6091C33.7548 15.6572 33.9421 15.7521 34.1234 15.8938C34.3786 16.0931 34.5353 16.3056 34.5934 16.5313C34.6526 16.7577 34.6412 16.9868 34.5594 17.2185Z" fill="#FFCE00"/>
<path d="M16.0388 31.2502L16.5858 31.5089L16.5927 33.7488L16.639 33.7707L18.8202 32.5655L19.3672 32.8242L16.5727 34.3196L15.6129 35.8403L15.1352 35.6144L16.095 34.0937L16.0388 31.2502Z" fill="#FFCE00"/>
<path d="M20.7493 37.7485C20.4387 37.694 20.1867 37.5792 19.9932 37.4041C19.8014 37.2279 19.6733 37.0067 19.6089 36.7406C19.5462 36.4733 19.5531 36.1765 19.6295 35.8501C19.706 35.5237 19.8335 35.2465 20.0121 35.0187C20.1925 34.7897 20.4074 34.6244 20.657 34.5228C20.9083 34.42 21.1794 34.3942 21.4704 34.4452C21.6383 34.4747 21.7976 34.5314 21.9484 34.6155C22.0991 34.6995 22.2271 34.8156 22.3322 34.9636C22.4377 35.1103 22.5065 35.2923 22.5387 35.5096C22.5708 35.7269 22.5521 35.9842 22.4824 36.2815L22.4338 36.489L19.9491 36.053L20.0482 35.6298L22.0293 35.9774C22.0714 35.7976 22.0726 35.6308 22.0329 35.477C21.9945 35.3234 21.9185 35.1941 21.8047 35.0892C21.6923 34.9845 21.5465 34.9165 21.3674 34.885C21.1702 34.8504 20.9882 34.8689 20.8214 34.9404C20.6563 35.0108 20.5173 35.116 20.4044 35.256C20.2915 35.396 20.2145 35.5539 20.1734 35.7295L20.1073 36.0116C20.051 36.2523 20.0452 36.4637 20.0899 36.6457C20.1364 36.8267 20.225 36.974 20.3557 37.0876C20.4867 37.1999 20.6523 37.2736 20.8523 37.3087C20.9824 37.3315 21.1042 37.3341 21.2175 37.3166C21.3326 37.2979 21.4372 37.2587 21.5313 37.1989C21.6257 37.1377 21.7069 37.0555 21.7748 36.9522L22.2222 37.1689C22.1342 37.3205 22.0166 37.4467 21.8691 37.5476C21.722 37.647 21.5531 37.7153 21.3624 37.7524C21.1719 37.7881 20.9676 37.7868 20.7493 37.7485Z" fill="#FFCE00"/>
<path d="M24.8045 34.8334L25.3072 34.8225L25.4086 38.3324C25.4144 38.534 25.3847 38.7094 25.3194 38.8586C25.2555 39.0077 25.1551 39.1243 25.0183 39.2082C24.8828 39.2921 24.7101 39.3363 24.4999 39.3409C24.4828 39.3413 24.4658 39.3416 24.4487 39.342C24.4317 39.3424 24.4147 39.3427 24.3976 39.3431L24.3841 38.8746C24.4011 38.8742 24.4168 38.8738 24.431 38.8735C24.4452 38.8732 24.4608 38.8729 24.4778 38.8725C24.6312 38.8692 24.7421 38.8213 24.8104 38.7289C24.8789 38.6379 24.9107 38.5094 24.9059 38.3433L24.8045 34.8334ZM25.0358 34.2828C24.9379 34.2849 24.8524 34.2534 24.7795 34.1882C24.7079 34.1229 24.6708 34.0435 24.6681 33.9498C24.6654 33.8561 24.6979 33.7751 24.7656 33.7068C24.8346 33.6386 24.9182 33.6034 25.0162 33.6013C25.1141 33.5991 25.1989 33.6307 25.2704 33.6959C25.3433 33.7611 25.3812 33.8406 25.3839 33.9343C25.3866 34.028 25.3534 34.109 25.2843 34.1772C25.2167 34.2455 25.1338 34.2807 25.0358 34.2828Z" fill="#FFCE00"/>
<path d="M29.876 36.2161L29.3286 34.3604L29.8196 34.2519L30.7456 37.3909L30.2546 37.4995L30.0979 36.9681L30.0646 36.9755C30.0367 37.1514 29.9602 37.3127 29.835 37.4594C29.7095 37.6047 29.526 37.704 29.2847 37.7574C29.0849 37.8015 28.8947 37.7978 28.7141 37.7463C28.533 37.6935 28.3724 37.5897 28.2322 37.4349C28.0916 37.2788 27.9819 37.0672 27.9031 36.8002L27.3148 34.8056L27.8057 34.6971L28.3845 36.6589C28.452 36.8878 28.571 37.056 28.7416 37.1634C28.9135 37.2705 29.1015 37.3015 29.3053 37.2565C29.4274 37.2295 29.5425 37.1714 29.6506 37.0822C29.7601 36.9927 29.8392 36.8751 29.8878 36.7294C29.9378 36.5833 29.9339 36.4122 29.876 36.2161Z" fill="#FFCE00"/>
<path d="M34.033 33.0563L33.7003 33.365C33.633 33.3152 33.5549 33.2731 33.4659 33.2389C33.3773 33.2029 33.2781 33.1864 33.1683 33.1895C33.0584 33.1926 32.9381 33.2269 32.8073 33.2925C32.6282 33.3822 32.5047 33.4954 32.4367 33.632C32.3692 33.7668 32.3745 33.8926 32.4527 34.0094C32.5222 34.1133 32.6177 34.175 32.7393 34.1945C32.8609 34.2139 33.0214 34.2004 33.221 34.154L33.7216 34.0354C34.0227 33.9633 34.278 33.9559 34.4876 34.0132C34.6964 34.0693 34.8644 34.1924 34.9916 34.3824C35.0959 34.5383 35.1408 34.7018 35.1265 34.8729C35.1134 35.0435 35.0449 35.2071 34.9208 35.3639C34.7968 35.5207 34.6212 35.656 34.3939 35.77C34.0955 35.9196 33.8082 35.9832 33.5321 35.9609C33.256 35.9385 33.0145 35.8247 32.8076 35.6194L33.1679 35.3063C33.3064 35.4323 33.4567 35.5036 33.6187 35.5201C33.782 35.536 33.9557 35.4978 34.1398 35.4055C34.3493 35.3005 34.488 35.1757 34.5559 35.0313C34.6242 34.8851 34.6193 34.7536 34.5411 34.6367C34.4779 34.5423 34.3894 34.481 34.2757 34.4529C34.1611 34.4236 34.0195 34.43 33.8509 34.472L33.2922 34.6102C32.9848 34.6855 32.7267 34.6927 32.5181 34.6317C32.3099 34.569 32.143 34.4438 32.0174 34.2561C31.9147 34.1026 31.8702 33.9436 31.8839 33.7791C31.8989 33.6139 31.9645 33.4572 32.0807 33.3091C32.1982 33.1603 32.3598 33.0344 32.5656 32.9312C32.8551 32.7861 33.1219 32.7311 33.3659 32.7664C33.6113 32.8011 33.8336 32.8977 34.033 33.0563Z" fill="#FFCE00"/>
<path d="M30.4795 23.3315C30.8486 23.23 31.0688 22.8468 30.9313 22.4895C30.4095 21.1339 29.4763 19.9682 28.2545 19.1617C26.839 18.2275 25.1325 17.8389 23.4521 18.0682C21.7716 18.2975 20.2316 19.1291 19.1182 20.4084C18.0047 21.6877 17.3937 23.3278 17.3985 25.0238C17.4033 26.7198 18.0237 28.3563 19.1443 29.6293C20.265 30.9023 21.8097 31.7251 23.4915 31.9449C25.1732 32.1646 26.8774 31.7664 28.2876 30.8241C29.5048 30.0107 30.4314 28.8398 30.9454 27.4812C31.0809 27.1232 30.8586 26.7412 30.4889 26.6418C30.1192 26.5424 29.7429 26.7638 29.5987 27.1184C29.1778 28.1535 28.4552 29.0448 27.5174 29.6714C26.3865 30.4271 25.0197 30.7465 23.6711 30.5703C22.3224 30.3941 21.0836 29.7342 20.1849 28.7133C19.2861 27.6924 18.7886 26.38 18.7848 25.0198C18.7809 23.6597 19.271 22.3445 20.1639 21.3185C21.0568 20.2925 22.2918 19.6256 23.6395 19.4417C24.9871 19.2579 26.3557 19.5695 27.4908 20.3187C28.4322 20.9401 29.1599 21.8272 29.5866 22.8599C29.7328 23.2137 30.1104 23.433 30.4795 23.3315Z" fill="#45BBBD"/>
<g clip-path="url(#clip0_2455_110)">
<path d="M23.3255 21.6016C23.078 21.6016 22.8406 21.6999 22.6656 21.8749C22.4905 22.05 22.3922 22.2874 22.3922 22.5349V23.0016C22.3922 23.2491 22.4905 23.4865 22.6656 23.6615C22.8406 23.8366 23.078 23.9349 23.3255 23.9349C23.5731 23.9349 23.8105 23.8366 23.9855 23.6615C24.1605 23.4865 24.2589 23.2491 24.2589 23.0016V22.5349C24.2589 22.2874 24.1605 22.05 23.9855 21.8749C23.8105 21.6999 23.5731 21.6016 23.3255 21.6016ZM25.6589 21.6016C25.4113 21.6016 25.1739 21.6999 24.9989 21.8749C24.8239 22.05 24.7255 22.2874 24.7255 22.5349V23.0016C24.7255 23.2491 24.8239 23.4865 24.9989 23.6615C25.1739 23.8366 25.4113 23.9349 25.6589 23.9349C25.9064 23.9349 26.1438 23.8366 26.3188 23.6615C26.4939 23.4865 26.5922 23.2491 26.5922 23.0016V22.5349C26.5922 22.2874 26.4939 22.05 26.3188 21.8749C26.1438 21.6999 25.9064 21.6016 25.6589 21.6016ZM21.9255 23.9349C21.678 23.9349 21.4406 24.0332 21.2656 24.2083C21.0905 24.3833 20.9922 24.6207 20.9922 24.8682V25.1016C20.9922 25.3491 21.0905 25.5865 21.2656 25.7615C21.4406 25.9366 21.678 26.0349 21.9255 26.0349C22.1731 26.0349 22.4105 25.9366 22.5855 25.7615C22.7605 25.5865 22.8589 25.3491 22.8589 25.1016V24.8682C22.8589 24.6207 22.7605 24.3833 22.5855 24.2083C22.4105 24.0332 22.1731 23.9349 21.9255 23.9349ZM27.0589 23.9349C26.8113 23.9349 26.5739 24.0332 26.3989 24.2083C26.2239 24.3833 26.1255 24.6207 26.1255 24.8682V25.1016C26.1255 25.3491 26.2239 25.5865 26.3989 25.7615C26.5739 25.9366 26.8113 26.0349 27.0589 26.0349C27.3064 26.0349 27.5438 25.9366 27.7188 25.7615C27.8939 25.5865 27.9922 25.3491 27.9922 25.1016V24.8682C27.9922 24.6207 27.8939 24.3833 27.7188 24.2083C27.5438 24.0332 27.3064 23.9349 27.0589 23.9349ZM25.4783 25.2318C25.3584 25.0862 25.2079 24.969 25.0374 24.8885C24.8669 24.8081 24.6807 24.7663 24.4922 24.7663C24.3037 24.7663 24.1175 24.8081 23.947 24.8885C23.7765 24.969 23.6259 25.0862 23.5061 25.2318L22.1449 26.8852C21.5807 27.5698 22.0679 28.6016 22.9545 28.6016C23.0815 28.6016 23.2065 28.5722 23.3195 28.5152L23.4875 28.4312C23.7994 28.2752 24.1434 28.194 24.4922 28.194C24.841 28.194 25.185 28.2752 25.4969 28.4312L25.6649 28.5152C25.7779 28.5722 25.9029 28.6016 26.0299 28.6016C26.9165 28.6016 27.4037 27.5698 26.84 26.8852L25.4783 25.2318Z" fill="#F0801A"/>
</g>
<defs>
<clipPath id="clip0_2455_110">
<rect width="7" height="7" fill="white" transform="translate(20.9922 21.6016)"/>
</clipPath>
</defs>
</svg>
